<?xml version="1.0"?>
<svg xmlns="http://www.w3.org/2000/svg" height="512px" viewBox="-69 0 469 469.637" width="512px" class=""><g><path d="m51.09375 469.636719h228.449219c27.953125 0 50.777343-23.234375 50.777343-51.191407v-293.144531c-.03125-2.097656-.90625-4.089843-2.425781-5.53125-1.523437-1.441406-3.558593-2.210937-5.652343-2.132812h-70.921876v-31.636719c0-47.496094-38.503906-86-86-86-47.5 0-86 38.503906-86 86v31.636719h-70.925781c-2.09375-.078125-4.128906.691406-5.648437 2.132812-1.523438 1.441407-2.394532 3.433594-2.425782 5.53125v293.144531c0 27.957032 22.820313 51.191407 50.773438 51.191407zm44.226562-383.636719c0-38.660156 31.339844-70 70-70 38.65625 0 70 31.339844 70 70v31.636719h-140zm-79 47.636719h63v78.292969c0 4.417968 3.578126 8 8 8 4.417969 0 8-3.582032 8-8v-78.292969h140v78.292969c0 4.417968 3.578126 8 8 8 4.417969 0 8-3.582032 8-8v-78.292969h63v284.808593c0 19.136719-15.644531 35.191407-34.777343 35.191407h-228.449219c-19.132812 0-34.773438-16.054688-34.773438-35.191407zm0 0" data-original="#000000" class="active-path" data-old_color="#26a69a" fill="#26a69a"/><path d="m160.710938 390.808594c.140624.058594.28125.109375.425781.15625 2.699219.988281 5.660156.988281 8.359375 0 .160156-.054688.320312-.113282.476562-.175782 55.484375-22.480468 74.199219-64.089843 68.128906-95.351562l-.011718-.058594c-4.59375-22.765625-21.226563-37.480468-42.375-37.480468-9.773438 0-20.167969 3.339843-30.328125 9.703124-10.28125-6.664062-20.566407-10.035156-30.636719-10.035156-21.285156 0-37.859375 14.878906-42.222656 37.882813-6.0625 31.597656 12.671875 73.332031 68.183594 95.359375zm-52.46875-92.355469c2.910156-15.347656 13.066406-24.882813 26.507812-24.882813 7.972656 0 16.886719 3.503907 25.78125 10.140626 2.808594 2.09375 6.648438 2.121093 9.484375.0625 8.898437-6.460938 17.789063-9.875 25.699219-9.875 13.386718 0 23.609375 9.433593 26.683594 24.617187 4.757812 24.585937-11.09375 57.75-57.101563 76.898437-46-18.757812-61.832031-52.058593-57.054687-76.960937zm0 0" data-original="#000000" class="active-path" data-old_color="#26a69a" fill="#26a69a"/></g> </svg>
